<mxfile host="app.diagrams.net" modified="2023-06-04T13:25:19.230Z" agent="Mozilla/5.0 (Windows NT 10.0; Win64; x64; rv:109.0) Gecko/20100101 Firefox/113.0" etag="vJuCH0nluEcZZEff4TA7" version="21.3.7" type="device">
  <diagram id="C5RBs43oDa-KdzZeNtuy" name="Page-1">
    <mxGraphModel dx="1434" dy="754" grid="1" gridSize="10" guides="1" tooltips="1" connect="1" arrows="1" fold="1" page="1" pageScale="1" pageWidth="827" pageHeight="1169" math="0" shadow="0">
      <root>
        <mxCell id="WIyWlLk6GJQsqaUBKTNV-0" />
        <mxCell id="WIyWlLk6GJQsqaUBKTNV-1" parent="WIyWlLk6GJQsqaUBKTNV-0" />
        <mxCell id="dvcxkpj5gV9UT9yZp9Ws-0" value="&lt;div&gt;Author&lt;/div&gt;" style="shape=umlActor;verticalLabelPosition=bottom;verticalAlign=top;html=1;outlineConnect=0;" vertex="1" parent="WIyWlLk6GJQsqaUBKTNV-1">
          <mxGeometry x="70" y="240" width="30" height="60" as="geometry" />
        </mxCell>
        <mxCell id="dvcxkpj5gV9UT9yZp9Ws-113" style="edgeStyle=none;rounded=0;orthogonalLoop=1;jettySize=auto;html=1;exitX=0;exitY=0;exitDx=0;exitDy=0;entryX=0.5;entryY=1;entryDx=0;entryDy=0;dashed=1;" edge="1" parent="WIyWlLk6GJQsqaUBKTNV-1" source="dvcxkpj5gV9UT9yZp9Ws-28" target="dvcxkpj5gV9UT9yZp9Ws-103">
          <mxGeometry relative="1" as="geometry" />
        </mxCell>
        <mxCell id="dvcxkpj5gV9UT9yZp9Ws-114" style="edgeStyle=none;rounded=0;orthogonalLoop=1;jettySize=auto;html=1;exitX=0.5;exitY=0;exitDx=0;exitDy=0;entryX=0.5;entryY=1;entryDx=0;entryDy=0;dashed=1;" edge="1" parent="WIyWlLk6GJQsqaUBKTNV-1" source="dvcxkpj5gV9UT9yZp9Ws-28" target="dvcxkpj5gV9UT9yZp9Ws-105">
          <mxGeometry relative="1" as="geometry" />
        </mxCell>
        <mxCell id="dvcxkpj5gV9UT9yZp9Ws-115" style="edgeStyle=none;rounded=0;orthogonalLoop=1;jettySize=auto;html=1;exitX=1;exitY=0;exitDx=0;exitDy=0;entryX=0.5;entryY=1;entryDx=0;entryDy=0;dashed=1;" edge="1" parent="WIyWlLk6GJQsqaUBKTNV-1" source="dvcxkpj5gV9UT9yZp9Ws-28" target="dvcxkpj5gV9UT9yZp9Ws-106">
          <mxGeometry relative="1" as="geometry" />
        </mxCell>
        <mxCell id="dvcxkpj5gV9UT9yZp9Ws-116" style="edgeStyle=none;rounded=0;orthogonalLoop=1;jettySize=auto;html=1;exitX=1;exitY=0.5;exitDx=0;exitDy=0;entryX=0;entryY=0.5;entryDx=0;entryDy=0;dashed=1;" edge="1" parent="WIyWlLk6GJQsqaUBKTNV-1" source="dvcxkpj5gV9UT9yZp9Ws-28" target="dvcxkpj5gV9UT9yZp9Ws-111">
          <mxGeometry relative="1" as="geometry" />
        </mxCell>
        <mxCell id="dvcxkpj5gV9UT9yZp9Ws-117" style="edgeStyle=none;rounded=0;orthogonalLoop=1;jettySize=auto;html=1;exitX=1;exitY=0;exitDx=0;exitDy=0;entryX=0;entryY=0.5;entryDx=0;entryDy=0;dashed=1;" edge="1" parent="WIyWlLk6GJQsqaUBKTNV-1" source="dvcxkpj5gV9UT9yZp9Ws-28" target="dvcxkpj5gV9UT9yZp9Ws-112">
          <mxGeometry relative="1" as="geometry" />
        </mxCell>
        <mxCell id="dvcxkpj5gV9UT9yZp9Ws-118" style="edgeStyle=none;rounded=0;orthogonalLoop=1;jettySize=auto;html=1;exitX=0;exitY=1;exitDx=0;exitDy=0;entryX=0.5;entryY=0;entryDx=0;entryDy=0;dashed=1;" edge="1" parent="WIyWlLk6GJQsqaUBKTNV-1" source="dvcxkpj5gV9UT9yZp9Ws-28" target="dvcxkpj5gV9UT9yZp9Ws-109">
          <mxGeometry relative="1" as="geometry" />
        </mxCell>
        <mxCell id="dvcxkpj5gV9UT9yZp9Ws-119" style="edgeStyle=none;rounded=0;orthogonalLoop=1;jettySize=auto;html=1;exitX=0.5;exitY=1;exitDx=0;exitDy=0;entryX=0.5;entryY=0;entryDx=0;entryDy=0;dashed=1;" edge="1" parent="WIyWlLk6GJQsqaUBKTNV-1" source="dvcxkpj5gV9UT9yZp9Ws-28" target="dvcxkpj5gV9UT9yZp9Ws-110">
          <mxGeometry relative="1" as="geometry" />
        </mxCell>
        <mxCell id="dvcxkpj5gV9UT9yZp9Ws-120" style="edgeStyle=none;rounded=0;orthogonalLoop=1;jettySize=auto;html=1;exitX=1;exitY=1;exitDx=0;exitDy=0;entryX=0.5;entryY=0;entryDx=0;entryDy=0;dashed=1;" edge="1" parent="WIyWlLk6GJQsqaUBKTNV-1" source="dvcxkpj5gV9UT9yZp9Ws-28" target="dvcxkpj5gV9UT9yZp9Ws-108">
          <mxGeometry relative="1" as="geometry" />
        </mxCell>
        <mxCell id="dvcxkpj5gV9UT9yZp9Ws-121" style="edgeStyle=none;rounded=0;orthogonalLoop=1;jettySize=auto;html=1;exitX=1;exitY=0.5;exitDx=0;exitDy=0;entryX=0;entryY=0.5;entryDx=0;entryDy=0;dashed=1;" edge="1" parent="WIyWlLk6GJQsqaUBKTNV-1" source="dvcxkpj5gV9UT9yZp9Ws-28" target="dvcxkpj5gV9UT9yZp9Ws-107">
          <mxGeometry relative="1" as="geometry" />
        </mxCell>
        <mxCell id="dvcxkpj5gV9UT9yZp9Ws-28" value="Loguearse" style="ellipse;whiteSpace=wrap;html=1;" vertex="1" parent="WIyWlLk6GJQsqaUBKTNV-1">
          <mxGeometry x="160" y="250" width="120" height="50" as="geometry" />
        </mxCell>
        <mxCell id="dvcxkpj5gV9UT9yZp9Ws-63" value="" style="endArrow=none;html=1;rounded=0;entryX=0;entryY=0.5;entryDx=0;entryDy=0;" edge="1" parent="WIyWlLk6GJQsqaUBKTNV-1" target="dvcxkpj5gV9UT9yZp9Ws-28">
          <mxGeometry width="50" height="50" relative="1" as="geometry">
            <mxPoint x="120" y="275" as="sourcePoint" />
            <mxPoint x="160" y="290" as="targetPoint" />
          </mxGeometry>
        </mxCell>
        <mxCell id="dvcxkpj5gV9UT9yZp9Ws-103" value="Ver Genre" style="ellipse;whiteSpace=wrap;html=1;" vertex="1" parent="WIyWlLk6GJQsqaUBKTNV-1">
          <mxGeometry x="110" y="150" width="120" height="50" as="geometry" />
        </mxCell>
        <mxCell id="dvcxkpj5gV9UT9yZp9Ws-105" value="Ver PlayerType" style="ellipse;whiteSpace=wrap;html=1;" vertex="1" parent="WIyWlLk6GJQsqaUBKTNV-1">
          <mxGeometry x="240" y="150" width="120" height="50" as="geometry" />
        </mxCell>
        <mxCell id="dvcxkpj5gV9UT9yZp9Ws-106" value="Ver Language" style="ellipse;whiteSpace=wrap;html=1;" vertex="1" parent="WIyWlLk6GJQsqaUBKTNV-1">
          <mxGeometry x="370" y="150" width="120" height="50" as="geometry" />
        </mxCell>
        <mxCell id="dvcxkpj5gV9UT9yZp9Ws-107" value="Ver Dev" style="ellipse;whiteSpace=wrap;html=1;" vertex="1" parent="WIyWlLk6GJQsqaUBKTNV-1">
          <mxGeometry x="490" y="330" width="120" height="50" as="geometry" />
        </mxCell>
        <mxCell id="dvcxkpj5gV9UT9yZp9Ws-108" value="Ver Platform" style="ellipse;whiteSpace=wrap;html=1;" vertex="1" parent="WIyWlLk6GJQsqaUBKTNV-1">
          <mxGeometry x="370" y="390" width="120" height="50" as="geometry" />
        </mxCell>
        <mxCell id="dvcxkpj5gV9UT9yZp9Ws-109" value="Ver Publisher" style="ellipse;whiteSpace=wrap;html=1;" vertex="1" parent="WIyWlLk6GJQsqaUBKTNV-1">
          <mxGeometry x="110" y="390" width="120" height="50" as="geometry" />
        </mxCell>
        <mxCell id="dvcxkpj5gV9UT9yZp9Ws-139" style="edgeStyle=none;rounded=0;orthogonalLoop=1;jettySize=auto;html=1;exitX=0;exitY=1;exitDx=0;exitDy=0;entryX=0.5;entryY=0;entryDx=0;entryDy=0;dashed=1;" edge="1" parent="WIyWlLk6GJQsqaUBKTNV-1" source="dvcxkpj5gV9UT9yZp9Ws-110" target="dvcxkpj5gV9UT9yZp9Ws-135">
          <mxGeometry relative="1" as="geometry" />
        </mxCell>
        <mxCell id="dvcxkpj5gV9UT9yZp9Ws-140" style="edgeStyle=none;rounded=0;orthogonalLoop=1;jettySize=auto;html=1;exitX=0.5;exitY=1;exitDx=0;exitDy=0;entryX=0.5;entryY=0;entryDx=0;entryDy=0;dashed=1;" edge="1" parent="WIyWlLk6GJQsqaUBKTNV-1" source="dvcxkpj5gV9UT9yZp9Ws-110" target="dvcxkpj5gV9UT9yZp9Ws-136">
          <mxGeometry relative="1" as="geometry" />
        </mxCell>
        <mxCell id="dvcxkpj5gV9UT9yZp9Ws-141" style="edgeStyle=none;rounded=0;orthogonalLoop=1;jettySize=auto;html=1;exitX=1;exitY=1;exitDx=0;exitDy=0;entryX=0.5;entryY=0;entryDx=0;entryDy=0;dashed=1;" edge="1" parent="WIyWlLk6GJQsqaUBKTNV-1" source="dvcxkpj5gV9UT9yZp9Ws-110" target="dvcxkpj5gV9UT9yZp9Ws-137">
          <mxGeometry relative="1" as="geometry" />
        </mxCell>
        <mxCell id="dvcxkpj5gV9UT9yZp9Ws-110" value="Ver Game" style="ellipse;whiteSpace=wrap;html=1;" vertex="1" parent="WIyWlLk6GJQsqaUBKTNV-1">
          <mxGeometry x="240" y="390" width="120" height="50" as="geometry" />
        </mxCell>
        <mxCell id="dvcxkpj5gV9UT9yZp9Ws-145" style="edgeStyle=none;rounded=0;orthogonalLoop=1;jettySize=auto;html=1;exitX=1;exitY=0.5;exitDx=0;exitDy=0;entryX=0;entryY=0.5;entryDx=0;entryDy=0;dashed=1;" edge="1" parent="WIyWlLk6GJQsqaUBKTNV-1" source="dvcxkpj5gV9UT9yZp9Ws-111" target="dvcxkpj5gV9UT9yZp9Ws-143">
          <mxGeometry relative="1" as="geometry" />
        </mxCell>
        <mxCell id="dvcxkpj5gV9UT9yZp9Ws-111" value="Ver, Crear y Actualizar Articles" style="ellipse;whiteSpace=wrap;html=1;" vertex="1" parent="WIyWlLk6GJQsqaUBKTNV-1">
          <mxGeometry x="500" y="250" width="140" height="50" as="geometry" />
        </mxCell>
        <mxCell id="dvcxkpj5gV9UT9yZp9Ws-144" style="edgeStyle=none;rounded=0;orthogonalLoop=1;jettySize=auto;html=1;exitX=1;exitY=0.5;exitDx=0;exitDy=0;entryX=0;entryY=0.5;entryDx=0;entryDy=0;dashed=1;" edge="1" parent="WIyWlLk6GJQsqaUBKTNV-1" source="dvcxkpj5gV9UT9yZp9Ws-112" target="dvcxkpj5gV9UT9yZp9Ws-142">
          <mxGeometry relative="1" as="geometry" />
        </mxCell>
        <mxCell id="dvcxkpj5gV9UT9yZp9Ws-112" value="Ver y Actualizar Author" style="ellipse;whiteSpace=wrap;html=1;" vertex="1" parent="WIyWlLk6GJQsqaUBKTNV-1">
          <mxGeometry x="505" y="190" width="130" height="50" as="geometry" />
        </mxCell>
        <mxCell id="dvcxkpj5gV9UT9yZp9Ws-122" value="&amp;lt;&amp;lt;include&amp;gt;&amp;gt;" style="text;html=1;strokeColor=none;fillColor=none;align=center;verticalAlign=middle;whiteSpace=wrap;rounded=0;rotation=-90;" vertex="1" parent="WIyWlLk6GJQsqaUBKTNV-1">
          <mxGeometry x="120" y="220" width="60" height="30" as="geometry" />
        </mxCell>
        <mxCell id="dvcxkpj5gV9UT9yZp9Ws-123" value="&amp;lt;&amp;lt;include&amp;gt;&amp;gt;" style="text;html=1;strokeColor=none;fillColor=none;align=center;verticalAlign=middle;whiteSpace=wrap;rounded=0;rotation=-30;" vertex="1" parent="WIyWlLk6GJQsqaUBKTNV-1">
          <mxGeometry x="210" y="200" width="60" height="30" as="geometry" />
        </mxCell>
        <mxCell id="dvcxkpj5gV9UT9yZp9Ws-124" value="&amp;lt;&amp;lt;include&amp;gt;&amp;gt;" style="text;html=1;strokeColor=none;fillColor=none;align=center;verticalAlign=middle;whiteSpace=wrap;rounded=0;rotation=-15;" vertex="1" parent="WIyWlLk6GJQsqaUBKTNV-1">
          <mxGeometry x="310" y="200" width="60" height="30" as="geometry" />
        </mxCell>
        <mxCell id="dvcxkpj5gV9UT9yZp9Ws-126" value="&amp;lt;&amp;lt;include&amp;gt;&amp;gt;" style="text;html=1;strokeColor=none;fillColor=none;align=center;verticalAlign=middle;whiteSpace=wrap;rounded=0;rotation=-10;" vertex="1" parent="WIyWlLk6GJQsqaUBKTNV-1">
          <mxGeometry x="370" y="230" width="60" height="30" as="geometry" />
        </mxCell>
        <mxCell id="dvcxkpj5gV9UT9yZp9Ws-127" value="&amp;lt;&amp;lt;include&amp;gt;&amp;gt;" style="text;html=1;strokeColor=none;fillColor=none;align=center;verticalAlign=middle;whiteSpace=wrap;rounded=0;rotation=0;" vertex="1" parent="WIyWlLk6GJQsqaUBKTNV-1">
          <mxGeometry x="370" y="270" width="60" height="30" as="geometry" />
        </mxCell>
        <mxCell id="dvcxkpj5gV9UT9yZp9Ws-128" value="&amp;lt;&amp;lt;include&amp;gt;&amp;gt;" style="text;html=1;strokeColor=none;fillColor=none;align=center;verticalAlign=middle;whiteSpace=wrap;rounded=0;rotation=15;" vertex="1" parent="WIyWlLk6GJQsqaUBKTNV-1">
          <mxGeometry x="360" y="310" width="60" height="30" as="geometry" />
        </mxCell>
        <mxCell id="dvcxkpj5gV9UT9yZp9Ws-130" value="&amp;lt;&amp;lt;include&amp;gt;&amp;gt;" style="text;html=1;strokeColor=none;fillColor=none;align=center;verticalAlign=middle;whiteSpace=wrap;rounded=0;rotation=30;" vertex="1" parent="WIyWlLk6GJQsqaUBKTNV-1">
          <mxGeometry x="300" y="330" width="60" height="30" as="geometry" />
        </mxCell>
        <mxCell id="dvcxkpj5gV9UT9yZp9Ws-131" value="&amp;lt;&amp;lt;include&amp;gt;&amp;gt;" style="text;html=1;strokeColor=none;fillColor=none;align=center;verticalAlign=middle;whiteSpace=wrap;rounded=0;rotation=45;" vertex="1" parent="WIyWlLk6GJQsqaUBKTNV-1">
          <mxGeometry x="210" y="320" width="60" height="30" as="geometry" />
        </mxCell>
        <mxCell id="dvcxkpj5gV9UT9yZp9Ws-134" value="&amp;lt;&amp;lt;include&amp;gt;&amp;gt;" style="text;html=1;strokeColor=none;fillColor=none;align=center;verticalAlign=middle;whiteSpace=wrap;rounded=0;rotation=-84;" vertex="1" parent="WIyWlLk6GJQsqaUBKTNV-1">
          <mxGeometry x="130" y="320" width="60" height="30" as="geometry" />
        </mxCell>
        <mxCell id="dvcxkpj5gV9UT9yZp9Ws-135" value="Ver Game&#39;s genres" style="ellipse;whiteSpace=wrap;html=1;" vertex="1" parent="WIyWlLk6GJQsqaUBKTNV-1">
          <mxGeometry x="110" y="490" width="120" height="50" as="geometry" />
        </mxCell>
        <mxCell id="dvcxkpj5gV9UT9yZp9Ws-136" value="Ver Game&#39;s player types" style="ellipse;whiteSpace=wrap;html=1;" vertex="1" parent="WIyWlLk6GJQsqaUBKTNV-1">
          <mxGeometry x="250" y="490" width="120" height="50" as="geometry" />
        </mxCell>
        <mxCell id="dvcxkpj5gV9UT9yZp9Ws-137" value="Ver Game&#39;s languages" style="ellipse;whiteSpace=wrap;html=1;" vertex="1" parent="WIyWlLk6GJQsqaUBKTNV-1">
          <mxGeometry x="390" y="490" width="120" height="50" as="geometry" />
        </mxCell>
        <mxCell id="dvcxkpj5gV9UT9yZp9Ws-142" value="Ver Articulos escritos" style="ellipse;whiteSpace=wrap;html=1;" vertex="1" parent="WIyWlLk6GJQsqaUBKTNV-1">
          <mxGeometry x="707" y="190" width="120" height="50" as="geometry" />
        </mxCell>
        <mxCell id="dvcxkpj5gV9UT9yZp9Ws-143" value="Ver Juegos relacionados" style="ellipse;whiteSpace=wrap;html=1;" vertex="1" parent="WIyWlLk6GJQsqaUBKTNV-1">
          <mxGeometry x="707" y="250" width="120" height="50" as="geometry" />
        </mxCell>
        <mxCell id="dvcxkpj5gV9UT9yZp9Ws-146" value="&amp;lt;&amp;lt;extend&amp;gt;&amp;gt;" style="text;html=1;strokeColor=none;fillColor=none;align=center;verticalAlign=middle;whiteSpace=wrap;rounded=0;rotation=0;" vertex="1" parent="WIyWlLk6GJQsqaUBKTNV-1">
          <mxGeometry x="640" y="270" width="60" height="30" as="geometry" />
        </mxCell>
        <mxCell id="dvcxkpj5gV9UT9yZp9Ws-148" value="&amp;lt;&amp;lt;extend&amp;gt;&amp;gt;" style="text;html=1;strokeColor=none;fillColor=none;align=center;verticalAlign=middle;whiteSpace=wrap;rounded=0;rotation=0;" vertex="1" parent="WIyWlLk6GJQsqaUBKTNV-1">
          <mxGeometry x="640" y="190" width="60" height="30" as="geometry" />
        </mxCell>
        <mxCell id="dvcxkpj5gV9UT9yZp9Ws-149" value="&amp;lt;&amp;lt;extend&amp;gt;&amp;gt;" style="text;html=1;strokeColor=none;fillColor=none;align=center;verticalAlign=middle;whiteSpace=wrap;rounded=0;rotation=30;" vertex="1" parent="WIyWlLk6GJQsqaUBKTNV-1">
          <mxGeometry x="383" y="440" width="60" height="30" as="geometry" />
        </mxCell>
        <mxCell id="dvcxkpj5gV9UT9yZp9Ws-150" value="&amp;lt;&amp;lt;extend&amp;gt;&amp;gt;" style="text;html=1;strokeColor=none;fillColor=none;align=center;verticalAlign=middle;whiteSpace=wrap;rounded=0;rotation=0;" vertex="1" parent="WIyWlLk6GJQsqaUBKTNV-1">
          <mxGeometry x="310" y="450" width="60" height="30" as="geometry" />
        </mxCell>
        <mxCell id="dvcxkpj5gV9UT9yZp9Ws-151" value="&amp;lt;&amp;lt;extend&amp;gt;&amp;gt;" style="text;html=1;strokeColor=none;fillColor=none;align=center;verticalAlign=middle;whiteSpace=wrap;rounded=0;rotation=-30;" vertex="1" parent="WIyWlLk6GJQsqaUBKTNV-1">
          <mxGeometry x="180" y="440" width="60" height="30" as="geometry" />
        </mxCell>
      </root>
    </mxGraphModel>
  </diagram>
</mxfile>
